<?xml version="1.0" encoding="utf-8"?>
<!-- Generator: Adobe Illustrator 25.0.1, SVG Export Plug-In . SVG Version: 6.00 Build 0)  -->
<svg version="1.1" id="Layer_1" xmlns="http://www.w3.org/2000/svg" xmlns:xlink="http://www.w3.org/1999/xlink" x="0px" y="0px"
	 viewBox="0 0 595.28 838.89" style="enable-background:new 0 0 595.28 838.89;" xml:space="preserve">
<style type="text/css">
	.st0{fill:#C49A6C;}
</style>
<g>
	<path class="st0" d="M261.53,448.86c-5.75,0.4-12.94,1.42-21.58,3.04l-21.69,3.59c-12.22,21.55-19.44,33.44-21.67,35.67
		c-2.24,2.23-4.7,3.25-7.39,3.06c-1.91-0.13-3.48-1.02-4.69-2.65c-1.21-1.63-1.74-3.5-1.6-5.59c0.23-3.26,6.51-14.62,18.83-34.06
		c-0.49-1.21-0.67-2.62-0.56-4.22c0.4-5.79,3.66-9.25,9.77-10.37c7.5-11.3,18.93-26.96,34.32-47
		c15.38-20.03,24.52-29.95,27.42-29.74c4.03,0.28,6.12,3.86,6.27,10.74l-1.55,31.09l-1.3,64.35l1.37,14.95
		c0.39,4.05,0.52,7.03,0.39,8.94c-0.19,2.65-1.31,4.98-3.37,7.01c-2.07,2.02-4.29,2.95-6.67,2.78c-3.36-0.24-5.53-4.49-6.52-12.76
		C260.33,479.43,260.4,466.48,261.53,448.86z M262.8,393.98l-30.91,40.64c5.23-1.24,15.25-2.89,30.05-4.96L262.8,393.98z"/>
	<path class="st0" d="M309.24,460.75c2.59,0.18,4.49,2.02,5.7,5.5c1.74,4.83,3.32,8.09,4.73,9.8c1.41,1.71,3.73,3.17,6.94,4.38
		c3.21,1.22,7.02,1.98,11.42,2.28c10.09,0.71,19.4-1.64,27.94-7.05c8.54-5.41,13.12-12.58,13.75-21.51
		c0.44-6.28-2.03-11.56-7.39-15.84c-5.37-4.28-12.77-6.93-22.21-7.96c-8.91-1.18-15.74-3.99-20.5-8.44
		c-4.76-4.45-6.89-10.19-6.4-17.21c0.83-11.83,7.52-22.19,20.07-31.09c12.55-8.9,24.49-12.96,35.82-12.17
		c5.95,0.42,11.98,2.04,18.1,4.89c6.12,2.84,9.05,6.05,8.8,9.62c-0.13,1.91-0.9,3.78-2.3,5.6c-1.4,1.82-3.52,2.63-6.37,2.43
		c-2.33-0.16-5.8-1.02-10.42-2.59c-4.87-1.7-8.39-2.63-10.56-2.78c-9.47-0.66-17.64,1.52-24.51,6.55
		c-6.88,5.03-10.53,10.62-10.96,16.78c-0.24,3.45,1.35,6.15,4.78,8.09c3.42,1.94,10.37,3.83,20.85,5.68
		c10.08,1.57,17.72,5.62,22.93,12.14c5.21,6.52,7.5,14.25,6.88,23.18c-1.04,14.84-7.69,26.94-19.96,36.3s-26.24,13.48-41.92,12.39
		c-10.04-0.7-18.55-3.63-25.54-8.8c-7-5.16-10.22-11.56-9.69-19.2c0.28-4.07,1.43-6.96,3.45-8.67
		C304.66,461.36,306.86,460.58,309.24,460.75z"/>
</g>
<g>
</g>
<g>
</g>
<g>
</g>
<g>
</g>
<g>
</g>
<g>
</g>
</svg>
